<?xml version="1.0" standalone="no"?>
<!DOCTYPE svg PUBLIC "-//W3C//DTD SVG 20010904//EN"
 "http://www.w3.org/TR/2001/REC-SVG-20010904/DTD/svg10.dtd">
<svg version="1.0" xmlns="http://www.w3.org/2000/svg"
 width="202.000000pt" height="219.000000pt" viewBox="0 0 202.000000 219.000000"
 preserveAspectRatio="xMidYMid meet">
<g transform="translate(0.000000,219.000000) scale(0.100000,-0.100000)"
fill="#000000" stroke="none">
<path d="M853 1983 c-18 -38 -28 -80 -31 -129 l-4 -72 -37 25 -36 25 -3 -50
c-2 -34 5 -73 22 -122 15 -41 24 -75 22 -77 -2 -2 -15 1 -30 7 -32 12 -96 13
-96 2 0 -5 13 -21 29 -36 29 -28 47 -66 31 -66 -5 0 -12 5 -15 10 -4 6 -24 19
-45 30 -62 32 -168 28 -245 -9 -65 -30 -102 -60 -88 -70 5 -3 24 -27 41 -53
39 -57 123 -132 178 -158 24 -12 61 -20 92 -20 58 0 63 -6 29 -38 -19 -18 -28
-20 -62 -12 -100 23 -140 1 -133 -77 3 -43 -2 -41 118 -30 l65 7 -41 -14 c-67
-22 -98 -42 -138 -87 -75 -82 -107 -200 -83 -297 8 -28 6 -32 -12 -32 -12 0
-21 -4 -21 -10 0 -5 7 -10 16 -10 8 0 13 -4 10 -8 -2 -4 -1 -14 5 -22 7 -13 9
-13 9 0 1 13 2 13 13 0 7 -8 22 -21 35 -28 20 -11 22 -10 22 13 0 24 2 25 22
14 33 -18 156 -15 202 5 21 9 41 16 45 16 4 0 12 -20 19 -44 14 -55 96 -147
157 -176 25 -12 45 -24 45 -26 0 -3 -8 -17 -17 -31 -17 -26 -17 -26 5 -21 12
3 25 1 29 -4 4 -7 11 -4 20 8 12 16 15 17 23 4 9 -13 11 -13 20 0 5 8 7 25 3
37 -3 13 -3 23 1 23 3 0 10 -19 16 -42 6 -24 20 -55 31 -70 19 -27 19 -27 -2
-42 -20 -14 -18 -43 2 -31 5 4 9 -1 9 -10 0 -11 5 -15 14 -12 8 3 17 3 20 0 3
-4 17 -8 31 -9 21 -2 25 2 25 22 0 22 4 24 42 24 93 0 233 112 293 235 57 115
42 270 -31 334 -32 29 -34 33 -32 93 2 35 -1 71 -5 80 -8 15 -5 16 40 4 27 -7
59 -18 70 -25 39 -20 70 -13 97 22 29 37 33 64 14 90 -13 17 -25 19 -333 47
-60 6 -140 16 -176 22 l-66 11 -16 50 c-9 28 -15 52 -13 54 2 2 29 -12 61 -32
78 -46 155 -68 246 -69 62 -1 81 3 98 18 30 27 27 34 -21 53 l-43 17 44 8 c67
11 179 108 253 217 29 42 22 56 -39 85 -136 67 -247 89 -320 62 -47 -16 -55
-8 -28 28 39 51 -4 54 -67 5 -20 -16 -38 -29 -40 -29 -2 0 -4 24 -4 53 -1 34
-14 83 -38 141 -20 50 -36 96 -36 103 0 19 -16 16 -47 -11 l-27 -24 -37 57
c-41 63 -111 131 -135 131 -9 0 -26 -23 -41 -57z m84 4 c12 -11 20 -24 16 -30
-3 -6 -1 -7 5 -3 12 7 70 -65 97 -121 9 -18 18 -33 21 -33 3 0 2 4 -1 10 -6
10 43 66 51 58 15 -15 74 -211 74 -246 0 -45 -49 -144 -105 -210 -25 -30 -33
-48 -16 -37 11 6 80 96 124 161 27 40 96 98 105 89 3 -2 -5 -20 -17 -40 -19
-32 -19 -36 -4 -31 115 36 248 21 368 -41 28 -14 51 -27 53 -29 19 -14 -138
-188 -199 -220 -17 -8 -56 -18 -86 -21 l-54 -6 51 -35 c56 -40 53 -49 -19 -57
-67 -6 -258 46 -244 68 3 6 1 7 -5 3 -14 -9 -92 35 -92 52 0 7 -15 -2 -32 -19
-50 -48 -101 -77 -168 -96 -50 -14 -69 -14 -111 -5 -28 7 -55 10 -60 6 -14 -8
-11 2 11 43 11 21 20 49 19 63 0 25 0 25 -9 3 -14 -36 -99 -32 -166 6 -70 41
-159 125 -149 141 5 8 4 11 -3 6 -10 -6 -42 29 -42 47 0 4 28 21 63 37 52 25
75 30 138 30 68 0 81 -3 131 -34 63 -38 76 -31 50 25 -8 18 -14 38 -13 42 1 5
-3 6 -8 3 -5 -4 -13 -1 -17 5 -5 9 4 10 32 5 65 -12 68 -14 98 -72 16 -31 43
-70 60 -87 23 -23 26 -29 11 -23 -107 43 -328 70 -385 48 -18 -7 -2 -9 65 -9
146 1 283 -32 403 -95 67 -36 67 -22 -1 25 -58 40 -95 76 -123 122 -17 27 -17
28 -1 16 25 -20 21 -6 -13 41 -33 45 -93 218 -84 242 5 13 12 11 45 -9 21 -14
40 -25 41 -25 2 0 1 28 0 61 -4 62 9 131 35 182 15 29 22 28 60 -6z m123 -772
c0 -28 37 -135 53 -150 6 -7 8 -2 4 13 -5 21 -3 23 21 17 69 -15 150 -24 308
-36 l171 -13 -18 -30 c-11 -17 -19 -39 -19 -48 0 -10 -1 -18 -2 -18 -2 0 -21
7 -43 15 -22 8 -54 14 -72 15 -21 0 -37 7 -47 22 -9 12 -16 17 -16 10 0 -7 9
-25 21 -41 11 -15 22 -48 25 -72 l4 -44 -14 50 c-15 51 -67 111 -90 102 -7 -3
-37 1 -66 9 -30 8 -70 14 -90 14 -20 0 -41 5 -48 12 -9 9 -12 9 -12 1 0 -7 5
-15 10 -18 26 -16 6 -24 -26 -10 -20 8 -45 15 -55 15 -21 0 -26 16 -7 22 7 3
0 15 -16 30 -25 22 -35 25 -83 22 -35 -3 -66 -12 -85 -25 -26 -19 -32 -20 -61
-8 -23 10 -76 14 -179 13 -82 -1 -148 2 -148 7 0 17 22 56 38 65 12 8 47 6
122 -8 59 -10 145 -17 195 -16 50 0 114 -4 144 -11 67 -14 73 -7 68 67 -2 28
0 52 5 52 4 0 8 -11 8 -25z m-34 -82 c-7 -7 -96 7 -96 15 0 4 21 18 48 32 l47
25 3 -34 c2 -18 1 -35 -2 -38z m-2 -60 c18 -10 18 -11 -1 -24 -30 -21 -44 -55
-41 -96 2 -22 -2 -38 -9 -40 -15 -5 -18 43 -4 79 22 60 22 76 -1 81 -32 9 -80
-16 -120 -62 -37 -44 -56 -45 -34 -2 14 26 56 70 56 58 0 -3 12 0 27 8 29 15
98 15 127 -2z m-243 -15 c38 -11 39 -12 24 -35 -9 -14 -14 -33 -10 -46 5 -20
5 -20 -5 -4 -7 10 -9 28 -7 39 6 20 3 20 -56 14 -70 -7 -166 -49 -218 -94 -39
-34 -99 -138 -99 -171 0 -27 15 -28 17 0 4 47 88 179 115 179 6 0 3 -9 -6 -19
-21 -23 -6 -37 24 -21 25 13 26 26 3 39 -15 8 -9 14 40 36 32 15 82 30 112 34
49 7 55 6 55 -11 0 -10 -5 -18 -11 -18 -29 0 -167 -77 -210 -117 -56 -52 -105
-125 -113 -168 -5 -24 -2 -21 14 14 23 48 70 111 115 153 31 29 178 108 200
108 6 0 20 -9 30 -20 16 -18 16 -26 5 -82 -6 -35 -20 -76 -30 -93 -37 -59
-114 -119 -196 -150 l-39 -15 35 6 c92 16 200 109 233 200 20 57 22 115 5 132
-9 9 -7 12 9 12 13 0 24 8 28 21 9 27 26 20 48 -22 38 -72 -1 -201 -82 -267
-89 -74 -117 -86 -211 -90 -148 -7 -206 40 -197 163 10 139 121 260 267 291
72 16 67 16 111 2z m173 -45 c-4 -16 -10 -38 -15 -49 -9 -24 14 -64 36 -64 25
0 83 -84 106 -153 22 -66 22 -69 4 -105 -25 -52 -44 -138 -45 -198 0 -58 -10
-67 -63 -57 -48 9 -77 26 -126 74 -39 39 -92 128 -90 154 0 6 13 20 30 33 l29
24 0 -24 c1 -69 96 -248 132 -248 5 0 -5 17 -22 37 -41 46 -76 122 -88 190 -8
46 -7 55 10 70 27 24 65 100 73 146 7 33 11 37 39 38 28 0 29 1 8 9 -12 5 -28
7 -36 4 -10 -4 -12 1 -9 18 2 13 -7 44 -20 70 -13 26 -22 50 -19 53 3 3 20 5
39 5 31 0 33 -2 27 -27z m706 18 c0 -6 -5 -13 -11 -17 -6 -3 -18 -22 -26 -42
-11 -25 -17 -32 -23 -22 -9 15 -4 33 18 68 14 22 42 31 42 13z m-565 -31 c70
-24 75 -24 75 -4 0 13 8 14 48 8 26 -4 74 -15 107 -24 51 -14 63 -22 77 -51
10 -19 18 -51 18 -72 l0 -37 -54 6 c-66 8 -138 -14 -184 -55 -34 -32 -36 -31
-46 12 -10 42 -51 102 -91 134 -34 27 -42 52 -29 87 8 20 9 20 79 -4z m-36
-126 c48 -55 76 -122 66 -161 -6 -25 -8 -21 -28 38 -12 36 -31 78 -42 93 -11
16 -25 37 -31 47 -6 11 -14 16 -17 12 -4 -3 -7 -1 -7 5 0 23 18 12 59 -34z
m371 -94 c-16 -31 -23 -18 -8 15 7 15 14 23 16 17 2 -6 -2 -21 -8 -32z m-44
24 c16 -4 20 -11 16 -27 -5 -20 -6 -20 -15 4 -7 17 -11 20 -15 10 -5 -16 41
-61 63 -61 8 0 17 5 20 10 3 6 -1 10 -9 10 -10 0 -13 6 -10 15 13 33 49 4 86
-69 17 -32 20 -53 16 -111 -12 -180 -175 -355 -335 -359 -47 -1 -57 2 -74 24
-44 56 -62 105 -67 182 -4 66 -1 86 23 150 16 40 42 94 58 120 51 78 161 124
243 102z"/>
<path d="M934 1885 c2 -11 17 -49 31 -84 38 -89 65 -226 72 -361 4 -70 9 -107
14 -95 20 53 -13 284 -62 430 -20 60 -64 148 -55 110z"/>
<path d="M1081 1744 c-7 -32 -20 -70 -28 -82 -16 -26 -12 -40 5 -19 14 16 45
133 40 149 -2 6 -10 -15 -17 -48z"/>
<path d="M880 1780 c0 -18 67 -98 93 -111 19 -8 18 -6 -4 13 -15 13 -40 43
-58 67 -17 24 -31 38 -31 31z"/>
<path d="M861 1620 c16 -36 79 -99 114 -116 l30 -15 -30 23 c-38 29 -74 65
-103 103 -20 25 -21 26 -11 5z"/>
<path d="M1131 1603 c-1 -7 -15 -35 -31 -64 -17 -28 -29 -53 -27 -55 7 -7 69
106 64 118 -4 9 -6 9 -6 1z"/>
<path d="M1395 1529 c-43 -23 -77 -50 -71 -56 3 -3 101 59 115 73 9 9 -6 3
-44 -17z"/>
<path d="M1351 1448 c-84 -11 -208 -60 -265 -104 -50 -38 -62 -57 -18 -28 15
9 43 28 62 40 19 13 71 35 115 51 72 25 94 27 217 28 75 0 129 3 119 6 -31 12
-164 16 -230 7z"/>
<path d="M1390 1385 c41 -13 76 -22 78 -20 5 4 -126 45 -142 44 -6 0 23 -11
64 -24z"/>
<path d="M900 1337 c-14 -12 -43 -37 -65 -55 -34 -29 -36 -32 -10 -18 37 19
112 82 105 89 -3 3 -16 -4 -30 -16z"/>
<path d="M1152 1335 c5 -5 19 -10 34 -11 14 -2 50 -17 81 -34 30 -17 52 -27
48 -21 -12 20 -90 59 -130 67 -22 3 -37 3 -33 -1z"/>
<path d="M870 874 c11 -12 10 -18 -3 -32 -16 -15 -17 -15 -17 1 0 10 -4 15
-10 12 -15 -9 -12 -35 3 -35 21 0 50 37 44 55 -4 8 -12 15 -18 15 -8 0 -8 -5
1 -16z"/>
<path d="M637 873 c-9 -9 -9 -43 1 -43 18 1 34 19 29 34 -7 17 -19 21 -30 9z"/>
<path d="M517 743 c-12 -12 -7 -43 6 -43 14 0 47 31 47 43 0 9 -45 9 -53 0z
m29 -18 c-21 -16 -32 -13 -21 4 3 6 14 11 23 11 15 -1 15 -2 -2 -15z"/>
<path d="M970 833 c0 -6 8 -30 17 -54 13 -34 17 -78 17 -197 1 -84 4 -143 8
-130 11 39 9 244 -3 300 -11 48 -39 108 -39 81z"/>
<path d="M920 751 c0 -11 5 -23 11 -27 8 -4 9 0 4 15 -3 12 -2 21 4 21 5 0 12
-8 15 -17 4 -14 4 -14 3 2 -3 27 -37 33 -37 6z"/>
<path d="M1032 738 c2 -12 10 -23 18 -23 22 0 19 39 -3 43 -15 3 -18 -1 -15
-20z"/>
<path d="M928 640 c3 -8 5 -25 5 -37 -1 -13 3 -21 8 -18 4 3 7 19 6 34 -1 16
-5 27 -9 25 -3 -2 -8 -1 -11 3 -2 5 -1 1 1 -7z"/>
<path d="M893 626 c4 -10 7 -24 7 -32 0 -8 4 -14 9 -14 11 0 1 49 -12 57 -7 4
-8 0 -4 -11z"/>
<path d="M1314 761 c-18 -11 -35 -25 -39 -31 -6 -9 -10 -9 -16 1 -6 10 -9 11
-9 2 0 -7 1 -14 3 -16 1 -2 -13 -20 -31 -41 -77 -87 -117 -235 -94 -346 l11
-55 -5 65 c-6 83 16 194 52 260 25 46 114 139 159 167 11 6 16 12 10 12 -5 1
-24 -8 -41 -18z"/>
<path d="M1459 677 c16 -42 -2 -134 -41 -214 -35 -72 -138 -186 -183 -203 -14
-5 -25 -14 -25 -20 0 -5 22 4 50 21 118 72 213 228 214 351 1 43 -4 72 -12 80
-11 11 -11 8 -3 -15z"/>
<path d="M1354 643 c-15 -27 -34 -59 -42 -73 -43 -69 -102 -194 -101 -213 0
-21 1 -21 12 3 39 87 90 185 130 253 25 42 42 77 37 77 -5 0 -21 -21 -36 -47z"/>
<path d="M1395 590 c3 -5 3 -15 -1 -22 -5 -8 -10 -6 -15 8 -7 17 -8 17 -8 -3
-1 -26 24 -31 33 -7 9 23 7 34 -5 34 -5 0 -7 -4 -4 -10z"/>
<path d="M1490 569 c0 -9 3 -19 7 -22 8 -9 33 12 33 27 0 6 -5 4 -10 -4 -9
-13 -11 -13 -20 0 -8 13 -10 13 -10 -1z"/>
<path d="M1247 540 c-6 -25 -24 -26 -30 -2 -3 10 -5 5 -6 -12 -1 -22 3 -27 15
-22 9 3 17 6 19 6 10 0 24 39 16 44 -5 3 -11 -3 -14 -14z"/>
<path d="M1250 368 c0 -10 4 -18 9 -18 18 0 41 12 41 22 0 6 -7 5 -16 -3 -13
-10 -17 -10 -25 2 -7 11 -9 11 -9 -3z"/>
</g>
</svg>
