<?xml version="1.0" encoding="UTF-8" standalone="no"?>
<!DOCTYPE svg PUBLIC "-//W3C//DTD SVG 1.1//EN" "http://www.w3.org/Graphics/SVG/1.1/DTD/svg11.dtd">
<svg width="100%" height="100%" viewBox="0 0 200 200" version="1.1" xmlns="http://www.w3.org/2000/svg" xmlns:xlink="http://www.w3.org/1999/xlink" xml:space="preserve" xmlns:serif="http://www.serif.com/" style="fill-rule:evenodd;clip-rule:evenodd;stroke-linejoin:round;stroke-miterlimit:2;">
    <g transform="matrix(0.246383,0,0,0.246383,-319.438993,-43.173166)">
        <g transform="matrix(1.594497,0,0,1.738966,-428.924846,-682.734075)">
            <path d="M1350.836,781.876C1350.836,781.876 1366.623,806.056 1368.739,815.342C1370.725,824.052 1382.392,836.18 1382.392,836.18L1369.306,857.038C1369.306,857.038 1359.064,866.237 1354.887,869.99C1353.729,871.03 1352.693,872.18 1351.796,873.419C1349.037,877.231 1343.008,885.563 1343.008,885.563C1343.008,885.563 1344.281,902.607 1335.987,902.607C1322.774,902.607 1301.644,891.668 1301.644,891.668C1301.644,891.668 1291.103,883.874 1282.734,875.29C1276.578,868.974 1266.168,852.276 1266.931,846.005C1268.598,832.293 1269.247,801.283 1269.247,801.283C1269.247,801.283 1276.189,796.044 1286.576,785.632C1309.16,762.992 1313.202,765.644 1323.124,765.644C1333.001,765.644 1350.836,781.876 1350.836,781.876Z" style="fill:rgb(107,178,0);"/>
        </g>
        <g transform="matrix(1.594497,0,0,1.738966,-277.974424,-632.417268)">
            <path d="M1369.693,780.464C1369.693,780.464 1378.552,797.587 1380.669,806.873C1382.655,815.583 1377.389,835.827 1377.389,835.827L1369.306,857.038C1369.306,857.038 1360.258,869.406 1356.214,874.936C1354.942,876.675 1353.445,878.266 1351.756,879.674C1346.244,884.269 1333.689,894.738 1333.689,894.738C1333.689,894.738 1307.561,909.664 1299.268,909.664C1292.193,909.664 1281.99,914.177 1273.321,907.222C1265.798,901.186 1255.2,885.317 1255.2,885.317C1255.2,885.317 1253.389,878.934 1250.408,869.291C1247.889,861.141 1248.081,848.395 1248.843,842.123C1250.51,828.418 1264.232,802.013 1264.244,801.989C1264.274,801.929 1264.304,801.868 1264.332,801.807C1265.161,800.081 1271.924,786.527 1283.516,777.682C1297.123,767.299 1309.973,767.287 1333.466,767.122C1342.339,767.059 1350.836,763.42 1354.684,767.056C1361.863,773.84 1369.693,780.464 1369.693,780.464Z" style="fill:rgb(98,139,0);"/>
        </g>
        <g transform="matrix(1.594497,0,0,1.738966,-549.194287,-752.686709)">
            <path d="M1369.693,780.464C1369.693,780.464 1381.246,797.94 1383.363,807.226C1385.348,815.936 1382.392,836.18 1382.392,836.18L1369.306,857.038C1369.306,857.038 1359.078,866.225 1354.895,869.982C1353.731,871.028 1352.451,871.958 1351.074,872.757C1345.435,876.03 1330.225,884.857 1330.225,884.857C1330.225,884.857 1306.407,889.198 1298.113,889.198C1284.899,889.198 1259.241,883.552 1259.241,883.552C1259.241,883.552 1253.389,878.934 1250.408,869.291C1247.889,861.141 1248.081,848.395 1248.843,842.123C1250.511,828.412 1269.247,801.283 1269.247,801.283C1269.247,801.283 1272.488,793.594 1286.21,787.207C1302.252,779.741 1329.754,773.407 1339.675,773.407C1349.553,773.407 1369.693,780.464 1369.693,780.464Z" style="fill:rgb(59,124,0);"/>
        </g>
        <g transform="matrix(6.330769,0,0,1.91,-6734.314414,-507.243382)">
            <path d="M1296.963,562.62L1301.224,554.172L1333.276,565.778C1333.108,545.167 1333.658,535.273 1335.041,537.794L1336.341,554.974L1338.266,568.78L1375.279,581.989L1374.895,596.124L1371.693,606.727L1360.274,596.993L1361.23,626.736L1357.614,601.586L1354.237,595.003L1342.034,587.44L1341.247,592.385L1332.943,585.668L1330.859,597.833C1330.859,597.833 1331.688,612.178 1330.859,612.604C1330.405,612.838 1329.274,613.396 1328.222,609.165C1327.476,606.163 1329.122,584.001 1328.3,579.997C1327.806,577.595 1325.058,578.323 1323.814,581.899C1323.1,583.953 1323.726,589.746 1323.407,589.29C1321.536,586.614 1319.244,602.737 1318.28,598.13C1317.771,595.696 1318.226,592.623 1319.126,588.127C1319.639,585.562 1320.178,585.322 1319.418,581.835C1317.256,571.922 1309.96,575.693 1307.169,576.05C1300.928,576.849 1296.672,575.564 1296.672,575.564L1296.963,562.62Z" style="fill:rgb(93,48,17);"/>
        </g>
        <g transform="matrix(1,0,0,1,610.770321,-608.187098)">
            <path d="M1381.765,1034.185L1340.997,1090.333L1294.528,1125.753L1248.615,1137.337L1280.287,1164.266L1258.329,1175.547L1207.364,1173.429L1156.701,1155.687L1105.619,1125.547L1076.868,1150.9L1032.522,1169.877L987.076,1174.941L945.233,1171.383L957.129,1137.069L911.163,1133.179L868.913,1110.142L828.26,1076.64L809.397,1038.123L861.373,1007.952L924.242,1007.926L957.257,1027.475L974.998,1027.475L948.046,985.135L1002.383,997.095L985.656,943.274C976.572,924.935 976.022,908.019 981.665,892.135L1014.652,914.677C1011.173,884.107 1016.19,806.562 1042.266,805.614C1058.756,805.015 1089.928,854.565 1110.816,883.991C1122.001,899.748 1120.519,849.972 1137.839,866.878C1152.224,880.919 1143.964,904.079 1159.232,929.896C1165.824,941.043 1163.146,978.542 1172.222,990.646C1177.168,997.244 1199.005,968.042 1213.967,966.715C1217.848,966.37 1203.739,988.771 1206.378,990.522C1217.393,997.832 1231.256,991.614 1248.49,989.105C1263.959,986.852 1282.74,988.422 1294.637,991.477C1321.273,998.317 1343.168,1004.182 1358.347,1013.196C1373.326,1022.093 1381.765,1034.185 1381.765,1034.185Z" style="fill:rgb(0,155,23);"/>
        </g>
        <g transform="matrix(0.416667,0,0,-0.416667,1276.625243,1039.704079)">
            <path d="M853,1983C835,1945 825,1903 822,1854L818,1782L781,1807L745,1832L742,1782C740,1748 747,1709 764,1660C779,1619 788,1585 786,1583C784,1581 771,1584 756,1590C724,1602 660,1603 660,1592C660,1587 673,1571 689,1556C718,1528 736,1490 720,1490C715,1490 708,1495 705,1500C701,1506 681,1519 660,1530C598,1562 492,1558 415,1521C350,1491 313,1461 327,1451C332,1448 351,1424 368,1398C407,1341 491,1266 546,1240C570,1228 607,1220 638,1220C696,1220 701,1214 667,1182C648,1164 639,1162 605,1170C505,1193 465,1171 472,1093C475,1050 470,1052 590,1063L655,1070L614,1056C547,1034 516,1014 476,969C401,887 369,769 393,672C401,644 399,640 381,640C369,640 360,636 360,630C360,625 367,620 376,620C384,620 389,616 386,612C384,608 385,598 391,590C398,577 400,577 400,590C401,603 402,603 413,590C420,582 435,569 448,562C468,551 470,552 470,575C470,599 472,600 492,589C525,571 648,574 694,594C715,603 735,610 739,610C743,610 751,590 758,566C772,511 854,419 915,390C940,378 960,366 960,364C960,361 952,347 943,333C926,307 926,307 948,312C960,315 973,313 977,308C981,301 988,304 997,316C1009,332 1012,333 1020,320C1029,307 1031,307 1040,320C1045,328 1047,345 1043,357C1040,370 1040,380 1044,380C1047,380 1054,361 1060,338C1066,314 1080,283 1091,268C1110,241 1110,241 1089,226C1069,212 1071,183 1091,195C1096,199 1100,194 1100,185C1100,174 1105,170 1114,173C1122,176 1131,176 1134,173C1137,169 1151,165 1165,164C1186,162 1190,166 1190,186C1190,208 1194,210 1232,210C1325,210 1465,322 1525,445C1582,560 1567,715 1494,779C1462,808 1460,812 1462,872C1464,907 1461,943 1457,952C1449,967 1452,968 1497,956C1524,949 1556,938 1567,931C1606,911 1637,918 1664,953C1693,990 1697,1017 1678,1043C1665,1060 1653,1062 1345,1090C1285,1096 1205,1106 1169,1112L1103,1123L1087,1173C1078,1201 1072,1225 1074,1227C1076,1229 1103,1215 1135,1195C1213,1149 1290,1127 1381,1126C1443,1125 1462,1129 1479,1144C1509,1171 1506,1178 1458,1197L1415,1214L1459,1222C1526,1233 1638,1330 1712,1439C1741,1481 1734,1495 1673,1524C1537,1591 1426,1613 1353,1586C1306,1570 1298,1578 1325,1614C1364,1665 1321,1668 1258,1619C1238,1603 1220,1590 1218,1590C1216,1590 1214,1614 1214,1643C1213,1677 1200,1726 1176,1784C1156,1834 1140,1880 1140,1887C1140,1906 1124,1903 1093,1876L1066,1852L1029,1909C988,1972 918,2040 894,2040C885,2040 868,2017 853,1983ZM937,1987C949,1976 957,1963 953,1957C950,1951 952,1950 958,1954C970,1961 1028,1889 1055,1833C1064,1815 1073,1800 1076,1800C1079,1800 1078,1804 1075,1810C1069,1820 1118,1876 1126,1868C1141,1853 1200,1657 1200,1622C1200,1577 1151,1478 1095,1412C1070,1382 1062,1364 1079,1375C1090,1381 1159,1471 1203,1536C1230,1576 1299,1634 1308,1625C1311,1623 1303,1605 1291,1585C1272,1553 1272,1549 1287,1554C1402,1590 1535,1575 1655,1513C1683,1499 1706,1486 1708,1484C1720.263,1474.964 1659.212,1399.279 1597.974,1338.138C1564.33,1304.548 1530.63,1275.347 1509,1264C1492,1256 1453,1246 1423,1243L1369,1237L1420,1202C1476,1162 1473,1153 1401,1145C1334,1139 1143,1191 1157,1213C1160,1219 1158,1220 1152,1216C1138,1207 1060,1251 1060,1268C1060,1275 1045,1266 1028,1249C978,1201 927,1172 860,1153C810,1139 791,1139 749,1148C721,1155 694,1158 689,1154C675,1146 678,1156 700,1197C711,1218 720,1246 719,1260C719,1285 719,1285 710,1263C696,1227 611,1231 544,1269C474,1310 385,1394 395,1410C400,1418 399,1421 392,1416C382,1410 350,1445 350,1463C350,1467 378,1484 413,1500C465,1525 488,1530 551,1530C619,1530 632,1527 682,1496C745,1458 758,1465 732,1521C724,1539 718,1559 719,1563C720,1568 716,1569 711,1566C706,1562 698,1565 694,1571C689,1580 698,1581 726,1576C791,1564 794,1562 824,1504C840,1473 867,1434 884,1417C907,1394 910,1388 895,1394C788,1437 567,1464 510,1442C492,1435 508,1433 575,1433C721,1434 858,1401 978,1338C1045,1302 1045,1316 977,1363C919,1403 882,1439 854,1485C837,1512 837,1513 853,1501C878,1481 874,1495 840,1542C807,1587 747,1760 756,1784C761,1797 768,1795 801,1775C822,1761 841,1750 842,1750C844,1750 843,1778 842,1811C838,1873 851,1942 877,1993C892,2022 899,2021 937,1987ZM1060,1215C1060,1187 1097,1080 1113,1065C1119,1058 1121,1063 1117,1078C1112,1099 1114,1101 1138,1095C1207,1080 1288,1071 1446,1059L1617,1046L1599,1016C1588,999 1580,977 1580,968C1580,958 1579,950 1578,950C1576,950 1557,957 1535,965C1513,973 1481,979 1463,980C1442,980 1426,987 1416,1002C1407,1014 1400,1019 1400,1012C1400,1005 1409,987 1421,971C1432,956 1443,923 1446,899L1450,855L1436,905C1421,956 1369,1016 1346,1007C1339,1004 1309,1008 1280,1016C1250,1024 1210,1030 1190,1030C1170,1030 1149,1035 1142,1042C1133,1051 1130,1051 1130,1043C1130,1036 1135,1028 1140,1025C1166,1009 1146,1001 1114,1015C1094,1023 1069,1030 1059,1030C1038,1030 1033,1046 1052,1052C1059,1055 1052,1067 1036,1082C1011,1104 1001,1107 953,1104C918,1101 887,1092 868,1079C842,1060 836,1059 807,1071C784,1081 731,1085 628,1084C546,1083 480,1086 480,1091C480,1108 502,1147 518,1156C530,1164 565,1162 640,1148C699,1138 785,1131 835,1132C885,1132 949,1128 979,1121C1046,1107 1052,1114 1047,1188C1045,1216 1047,1240 1052,1240C1056,1240 1060,1229 1060,1215ZM1026,1133C1019,1126 930,1140 930,1148C930,1152 951,1166 978,1180L1025,1205L1028,1171C1030,1153 1029,1136 1026,1133ZM1024,1073C1042,1063 1042,1062 1023,1049C993,1028 979,994 982,953C984,931 980,915 973,913C958,908 955,956 969,992C991,1052 991,1068 968,1073C936,1082 888,1057 848,1011C811,967 792,966 814,1009C828,1035 870,1079 870,1067C870,1064 882,1067 897,1075C926,1090 995,1090 1024,1073ZM781,1058C819,1047 820,1046 805,1023C796,1009 791,990 795,977C800,957 800,957 790,973C783,983 781,1001 783,1012C789,1032 786,1032 727,1026C657,1019 561,977 509,932C470,898 410,794 410,761C410,734 425,733 427,761C431,808 515,940 542,940C548,940 545,931 536,921C515,898 530,884 560,900C585,913 586,926 563,939C548,947 554,953 603,975C635,990 685,1005 715,1009C764,1016 770,1015 770,998C770,988 765,980 759,980C730,980 592,903 549,863C493,811 444,738 436,695C431,671 434,674 450,709C473,757 520,820 565,862C596,891 743,970 765,970C771,970 785,961 795,950C811,932 811,924 800,868C794,833 780,792 770,775C733,716 656,656 574,625L535,610L570,616C662,632 770,725 803,816C823,873 825,931 808,948C799,957 801,960 817,960C830,960 841,968 845,981C854,1008 871,1001 893,959C931,887 892,758 811,692C722,618 694,606 600,602C452,595 394,642 403,765C413,904 524,1025 670,1056C742,1072 737,1072 781,1058ZM954,1013C951.81,1004.239 946.122,984.11 946.122,984.11C946.122,984.11 944.207,960.14 941.945,955.164C939.227,947.916 897.95,950.826 900.161,942.202C902.423,933.373 938.858,936.757 947.718,929.708C953.181,925.362 948.953,916.664 953.239,910.427C957.695,903.943 970.64,900 975,900C1000,900 1058,816 1081,747C1103,681 1103,678 1085,642C1060,590 1041,504 1040,444C1040,386 1030,377 977,387C929,396 900,413 851,461C812,500 759,589 761,615C761,621 774,635 791,648L820,672L820,648C821,579 916,400 952,400C957,400 947,417 930,437C889,483 854,559 842,627C834,673 835,682 852,697C879,721 917,797 925,843C932,876 936,880 964,881C992,881 993,882 972,890C960,895 944,897 936,894C926,890 924,895 927,912C929,925 920,956 907,982C894,1008 885,1032 888,1035C891,1038 908,1040 927,1040C958,1040 960,1038 954,1013ZM1660,1031C1660,1025 1655,1018 1649,1014C1643,1011 1631,992 1623,972C1612,947 1606,940 1600,950C1591,965 1596,983 1618,1018C1632,1040 1660,1049 1660,1031ZM1095,1000C1165,976 1170,976 1170,996C1170,1009 1178,1010 1218,1004C1244,1000 1292,989 1325,980C1376,966 1388,958 1402,929C1412,910 1420,878 1420,857L1420,820L1366,826C1300,834 1228,812 1182,771C1148,739 1146,740 1136,783C1126,825 1085,885 1045,917C1011,944 1003,969 1016,1004C1024,1024 1025,1024 1095,1000ZM1059,874C1107,819 1135,752 1125,713C1119,688 1117,692 1097,751C1085.998,784.005 1069.113,822.053 1057.903,839.714C1056.886,841.317 1055.915,842.752 1055,844C1044,860 1030,881 1024,891C1018,902 1010,907 1007,903C1003,900 1000,902 1000,908C1000,931 1018,920 1059,874ZM1430,780C1414,749 1407,762 1422,795C1429,810 1436,818 1438,812C1440,806 1436,791 1430,780ZM1386,804C1402,800 1406,793 1402,777C1397,757 1396,757 1387,781C1380,798 1376,801 1372,791C1367,775 1413,730 1435,730C1443,730 1452,735 1455,740C1458,746 1454,750 1446,750C1436,750 1433,756 1436,765C1449,798 1485,769 1522,696C1539,664 1542,643 1538,585C1526,405 1363,230 1203,226C1156,225 1146,228 1129,250C1085,306 1067,355 1062,432C1058,498 1061,518 1085,582C1101,622 1127,676 1143,702C1194,780 1304,826 1386,804Z" style="fill-rule:nonzero;"/>
            <path d="M934,1885C936,1874 951,1836 965,1801C1003,1712 1030,1575 1037,1440C1041,1370 1046,1333 1051,1345C1071,1398 1038,1629 989,1775C969,1835 925,1923 934,1885Z" style="fill-rule:nonzero;"/>
            <path d="M1081,1744C1074,1712 1061,1674 1053,1662C1037,1636 1041,1622 1058,1643C1072,1659 1103,1776 1098,1792C1096,1798 1088,1777 1081,1744Z" style="fill-rule:nonzero;"/>
            <path d="M880,1780C880,1762 947,1682 973,1669C992,1661 991,1663 969,1682C954,1695 929,1725 911,1749C894,1773 880,1787 880,1780Z" style="fill-rule:nonzero;"/>
            <path d="M861,1620C877,1584 940,1521 975,1504L1005,1489L975,1512C937,1541 901,1577 872,1615C852,1640 851,1641 861,1620Z" style="fill-rule:nonzero;"/>
            <path d="M1131,1603C1130,1596 1116,1568 1100,1539C1083,1511 1071,1486 1073,1484C1080,1477 1142,1590 1137,1602C1133,1611 1131,1611 1131,1603Z" style="fill-rule:nonzero;"/>
            <path d="M1395,1529C1352,1506 1318,1479 1324,1473C1327,1470 1425,1532 1439,1546C1448,1555 1433,1549 1395,1529Z" style="fill-rule:nonzero;"/>
            <path d="M1351,1448C1267,1437 1143,1388 1086,1344C1036,1306 1024,1287 1068,1316C1083,1325 1111,1344 1130,1356C1149,1369 1201,1391 1245,1407C1317,1432 1339,1434 1462,1435C1537,1435 1591,1438 1581,1441C1550,1453 1417,1457 1351,1448Z" style="fill-rule:nonzero;"/>
            <path d="M1390,1385C1431,1372 1466,1363 1468,1365C1473,1369 1342,1410 1326,1409C1320,1409 1349,1398 1390,1385Z" style="fill-rule:nonzero;"/>
            <path d="M900,1337C886,1325 857,1300 835,1282C801,1253 799,1250 825,1264C862,1283 937,1346 930,1353C927,1356 914,1349 900,1337Z" style="fill-rule:nonzero;"/>
            <path d="M1152,1335C1157,1330 1171,1325 1186,1324C1200,1322 1236,1307 1267,1290C1297,1273 1319,1263 1315,1269C1303,1289 1225,1328 1185,1336C1163,1339 1148,1339 1152,1335Z" style="fill-rule:nonzero;"/>
            <path d="M870,874C881,862 880,856 867,842C851,827 850,827 850,843C850,853 846,858 840,855C825,846 828,820 843,820C864,820 893,857 887,875C883,883 875,890 869,890C861,890 861,885 870,874Z" style="fill-rule:nonzero;"/>
            <path d="M637,873C628,864 628,830 638,830C656,831 672,849 667,864C660,881 648,885 637,873Z" style="fill-rule:nonzero;"/>
            <path d="M517,743C505,731 510,700 523,700C537,700 570,731 570,743C570,752 525,752 517,743ZM546,725C525,709 514,712 525,729C528,735 539,740 548,740C563,739 563,738 546,725Z" style="fill-rule:nonzero;"/>
            <path d="M970,833C970,827 978,803 987,779C1000,745 1004,701 1004,582C1005,498 1008,439 1012,452C1023,491 1021,696 1009,752C998,800 970,860 970,833Z" style="fill-rule:nonzero;"/>
            <path d="M920,751C920,740 925,728 931,724C939,720 940,724 935,739C932,751 933,760 939,760C944,760 951,752 954,743C958,729 958,729 957,745C954,772 920,778 920,751Z" style="fill-rule:nonzero;"/>
            <path d="M1032,738C1034,726 1042,715 1050,715C1072,715 1069,754 1047,758C1032,761 1029,757 1032,738Z" style="fill-rule:nonzero;"/>
            <path d="M928,640C931,632 933,615 933,603C932,590 936,582 941,585C945,588 948,604 947,619C946,635 942,646 938,644C935,642 930,643 927,647C925,652 926,648 928,640Z" style="fill-rule:nonzero;"/>
            <path d="M893,626C897,616 900,602 900,594C900,586 904,580 909,580C920,580 910,629 897,637C890,641 889,637 893,626Z" style="fill-rule:nonzero;"/>
            <path d="M1314,761C1296,750 1279,736 1275,730C1269,721 1265,721 1259,731C1253,741 1250,742 1250,733C1250,726 1251,719 1253,717C1254,715 1240,697 1222,676C1145,589 1105,441 1128,330L1139,275L1134,340C1128,423 1150,534 1186,600C1211,646 1300,739 1345,767C1356,773 1361,779 1355,779C1350,780 1331,771 1314,761Z" style="fill-rule:nonzero;"/>
            <path d="M1459,677C1475,635 1457,543 1418,463C1383,391 1280,277 1235,260C1221,255 1210,246 1210,240C1210,235 1232,244 1260,261C1378,333 1473,489 1474,612C1475,655 1470,684 1462,692C1451,703 1451,700 1459,677Z" style="fill-rule:nonzero;"/>
            <path d="M1354,643C1339,616 1320,584 1312,570C1269,501 1210,376 1211,357C1211,336 1212,336 1223,360C1262,447 1313,545 1353,613C1378,655 1395,690 1390,690C1385,690 1369,669 1354,643Z" style="fill-rule:nonzero;"/>
            <path d="M1395,590C1398,585 1398,575 1394,568C1389,560 1384,562 1379,576C1372,593 1371,593 1371,573C1370,547 1395,542 1404,566C1413,589 1411,600 1399,600C1394,600 1392,596 1395,590Z" style="fill-rule:nonzero;"/>
            <path d="M1490,569C1490,560 1493,550 1497,547C1505,538 1530,559 1530,574C1530,580 1525,578 1520,570C1511,557 1509,557 1500,570C1492,583 1490,583 1490,569Z" style="fill-rule:nonzero;"/>
            <path d="M1247,540C1241,515 1223,514 1217,538C1214,548 1212,543 1211,526C1210,504 1214,499 1226,504C1235,507 1243,510 1245,510C1255,510 1269,549 1261,554C1256,557 1250,551 1247,540Z" style="fill-rule:nonzero;"/>
            <path d="M1250,368C1250,358 1254,350 1259,350C1277,350 1300,362 1300,372C1300,378 1293,377 1284,369C1271,359 1267,359 1259,371C1252,382 1250,382 1250,368Z" style="fill-rule:nonzero;"/>
        </g>
    </g>
</svg>
